<svg width="222" height="30" viewBox="0 0 222 47" fill="#699EEE" xmlns="http://www.w3.org/2000/svg">
<path d="M27.85 29.475C28.2167 29.475 28.5417 29.6167 28.825 29.9L31.475 32.775C30.0083 34.5917 28.2 35.9833 26.05 36.95C23.9167 37.9167 21.35 38.4 18.35 38.4C15.6667 38.4 13.25 37.9417 11.1 37.025C8.96667 36.1083 7.14167 34.8333 5.625 33.2C4.10833 31.5667 2.94167 29.6167 2.125 27.35C1.325 25.0833 0.925 22.6083 0.925 19.925C0.925 17.2083 1.35833 14.725 2.225 12.475C3.09167 10.2083 4.30833 8.25833 5.875 6.625C7.45833 4.99166 9.34167 3.725 11.525 2.825C13.7083 1.90833 16.125 1.45 18.775 1.45C21.4083 1.45 23.7417 1.88333 25.775 2.75C27.825 3.61667 29.5667 4.75 31 6.15L28.75 9.275C28.6167 9.475 28.4417 9.65 28.225 9.8C28.025 9.95 27.7417 10.025 27.375 10.025C27.125 10.025 26.8667 9.95833 26.6 9.825C26.3333 9.675 26.0417 9.5 25.725 9.3C25.4083 9.08333 25.0417 8.85 24.625 8.6C24.2083 8.35 23.725 8.125 23.175 7.925C22.625 7.70833 21.9833 7.53333 21.25 7.4C20.5333 7.25 19.7 7.175 18.75 7.175C17.1333 7.175 15.65 7.46667 14.3 8.05C12.9667 8.61667 11.8167 9.45 10.85 10.55C9.88333 11.6333 9.13333 12.9667 8.6 14.55C8.06667 16.1167 7.8 17.9083 7.8 19.925C7.8 21.9583 8.08333 23.7667 8.65 25.35C9.23333 26.9333 10.0167 28.2667 11 29.35C11.9833 30.4333 13.1417 31.2667 14.475 31.85C15.8083 32.4167 17.2417 32.7 18.775 32.7C19.6917 32.7 20.5167 32.65 21.25 32.55C22 32.45 22.6833 32.2917 23.3 32.075C23.9333 31.8583 24.525 31.5833 25.075 31.25C25.6417 30.9 26.2 30.475 26.75 29.975C26.9167 29.825 27.0917 29.7083 27.275 29.625C27.4583 29.525 27.65 29.475 27.85 29.475ZM45.9195 11.95C47.8195 11.95 49.5445 12.2583 51.0945 12.875C52.6612 13.4917 53.9945 14.3667 55.0945 15.5C56.2112 16.6333 57.0695 18.0167 57.6695 19.65C58.2695 21.2833 58.5695 23.1083 58.5695 25.125C58.5695 27.1583 58.2695 28.9917 57.6695 30.625C57.0695 32.2583 56.2112 33.65 55.0945 34.8C53.9945 35.95 52.6612 36.8333 51.0945 37.45C49.5445 38.0667 47.8195 38.375 45.9195 38.375C44.0029 38.375 42.2612 38.0667 40.6945 37.45C39.1279 36.8333 37.7862 35.95 36.6695 34.8C35.5695 33.65 34.7112 32.2583 34.0945 30.625C33.4945 28.9917 33.1945 27.1583 33.1945 25.125C33.1945 23.1083 33.4945 21.2833 34.0945 19.65C34.7112 18.0167 35.5695 16.6333 36.6695 15.5C37.7862 14.3667 39.1279 13.4917 40.6945 12.875C42.2612 12.2583 44.0029 11.95 45.9195 11.95ZM45.9195 33.625C48.0529 33.625 49.6279 32.9083 50.6445 31.475C51.6779 30.0417 52.1945 27.9417 52.1945 25.175C52.1945 22.4083 51.6779 20.3 50.6445 18.85C49.6279 17.4 48.0529 16.675 45.9195 16.675C43.7529 16.675 42.1445 17.4083 41.0945 18.875C40.0612 20.325 39.5445 22.425 39.5445 25.175C39.5445 27.925 40.0612 30.025 41.0945 31.475C42.1445 32.9083 43.7529 33.625 45.9195 33.625ZM81.6555 17.775C81.4721 18.0083 81.2888 18.1917 81.1055 18.325C80.9388 18.4583 80.6888 18.525 80.3555 18.525C80.0388 18.525 79.7305 18.4333 79.4305 18.25C79.1305 18.05 78.7721 17.8333 78.3555 17.6C77.9388 17.35 77.4388 17.1333 76.8555 16.95C76.2888 16.75 75.5805 16.65 74.7305 16.65C73.6471 16.65 72.6971 16.85 71.8805 17.25C71.0638 17.6333 70.3805 18.1917 69.8305 18.925C69.2971 19.6583 68.8971 20.55 68.6305 21.6C68.3638 22.6333 68.2305 23.8083 68.2305 25.125C68.2305 26.4917 68.3721 27.7083 68.6555 28.775C68.9555 29.8417 69.3805 30.7417 69.9305 31.475C70.4805 32.1917 71.1471 32.7417 71.9305 33.125C72.7138 33.4917 73.5971 33.675 74.5805 33.675C75.5638 33.675 76.3555 33.5583 76.9555 33.325C77.5721 33.075 78.0888 32.8083 78.5055 32.525C78.9221 32.225 79.2805 31.9583 79.5805 31.725C79.8971 31.475 80.2471 31.35 80.6305 31.35C81.1305 31.35 81.5055 31.5417 81.7555 31.925L83.5305 34.175C82.8471 34.975 82.1055 35.65 81.3055 36.2C80.5055 36.7333 79.6721 37.1667 78.8055 37.5C77.9555 37.8167 77.0721 38.0417 76.1555 38.175C75.2555 38.3083 74.3555 38.375 73.4555 38.375C71.8721 38.375 70.3805 38.0833 68.9805 37.5C67.5805 36.9 66.3555 36.0333 65.3055 34.9C64.2555 33.7667 63.4221 32.3833 62.8055 30.75C62.2055 29.1 61.9055 27.225 61.9055 25.125C61.9055 23.2417 62.1721 21.5 62.7055 19.9C63.2555 18.2833 64.0555 16.8917 65.1055 15.725C66.1555 14.5417 67.4555 13.6167 69.0055 12.95C70.5555 12.2833 72.3388 11.95 74.3555 11.95C76.2721 11.95 77.9471 12.2583 79.3805 12.875C80.8305 13.4917 82.1305 14.375 83.2805 15.525L81.6555 17.775ZM93.5766 0.849998V22.125H94.7266C95.1432 22.125 95.4682 22.075 95.7016 21.975C95.9516 21.8583 96.2016 21.6333 96.4516 21.3L102.827 13.425C103.093 13.075 103.385 12.8083 103.702 12.625C104.035 12.4417 104.46 12.35 104.977 12.35H110.627L102.652 21.875C102.085 22.625 101.468 23.2 100.802 23.6C101.152 23.85 101.46 24.1417 101.727 24.475C102.01 24.8083 102.277 25.1667 102.527 25.55L111.077 38H105.502C105.018 38 104.602 37.925 104.252 37.775C103.902 37.6083 103.61 37.3167 103.377 36.9L96.8266 27.175C96.5932 26.7917 96.3516 26.5417 96.1016 26.425C95.8516 26.3083 95.4766 26.25 94.9766 26.25H93.5766V38H87.4016V0.849998H93.5766ZM137.411 12.35L123.436 45.05C123.252 45.4833 123.011 45.8083 122.711 46.025C122.427 46.2583 121.986 46.375 121.386 46.375H116.786L121.586 36.075L111.211 12.35H116.636C117.119 12.35 117.494 12.4667 117.761 12.7C118.044 12.9333 118.252 13.2 118.386 13.5L123.836 26.8C124.019 27.25 124.169 27.7 124.286 28.15C124.419 28.6 124.544 29.0583 124.661 29.525C124.811 29.0583 124.961 28.6 125.111 28.15C125.261 27.6833 125.427 27.225 125.611 26.775L130.761 13.5C130.894 13.1667 131.111 12.8917 131.411 12.675C131.727 12.4583 132.077 12.35 132.461 12.35H137.411ZM164.7 25.15C164.7 27.1833 164.45 29.0167 163.95 30.65C163.45 32.2833 162.7 33.675 161.7 34.825C160.717 35.975 159.484 36.8583 158 37.475C156.517 38.0917 154.792 38.4 152.825 38.4C151.925 38.4 151.042 38.3417 150.175 38.225C149.309 38.125 148.4 37.9583 147.45 37.725C147.5 37.0583 147.559 36.3917 147.625 35.725C147.692 35.0583 147.75 34.3917 147.8 33.725C147.85 33.3583 147.992 33.0667 148.225 32.85C148.475 32.6167 148.825 32.5 149.275 32.5C149.559 32.5 149.925 32.5583 150.375 32.675C150.842 32.7917 151.425 32.85 152.125 32.85C153.075 32.85 153.917 32.7167 154.65 32.45C155.384 32.1667 155.992 31.725 156.475 31.125C156.975 30.525 157.35 29.75 157.6 28.8C157.85 27.8333 157.975 26.6667 157.975 25.3V1.85H164.7V25.15ZM192.851 12.35V38H189.076C188.26 38 187.743 37.625 187.526 36.875L187.101 34.825C186.051 35.8917 184.893 36.7583 183.626 37.425C182.36 38.075 180.868 38.4 179.151 38.4C177.751 38.4 176.51 38.1667 175.426 37.7C174.36 37.2167 173.46 36.5417 172.726 35.675C171.993 34.8083 171.435 33.7833 171.051 32.6C170.685 31.4 170.501 30.0833 170.501 28.65V12.35H176.676V28.65C176.676 30.2167 177.035 31.4333 177.751 32.3C178.485 33.15 179.576 33.575 181.026 33.575C182.093 33.575 183.093 33.3417 184.026 32.875C184.96 32.3917 185.843 31.7333 186.676 30.9V12.35H192.851ZM204.749 15.5C205.265 14.9833 205.807 14.5083 206.374 14.075C206.957 13.625 207.565 13.25 208.199 12.95C208.849 12.6333 209.54 12.3917 210.274 12.225C211.007 12.0417 211.807 11.95 212.674 11.95C214.074 11.95 215.315 12.1917 216.399 12.675C217.482 13.1417 218.382 13.8083 219.099 14.675C219.832 15.525 220.382 16.55 220.749 17.75C221.132 18.9333 221.324 20.2417 221.324 21.675V38H215.149V21.675C215.149 20.1083 214.79 18.9 214.074 18.05C213.357 17.1833 212.265 16.75 210.799 16.75C209.732 16.75 208.732 16.9917 207.799 17.475C206.865 17.9583 205.982 18.6167 205.149 19.45V38H198.974V12.35H202.749C203.549 12.35 204.074 12.725 204.324 13.475L204.749 15.5Z" />
</svg>
